<svg width="20" height="20" viewBox="0 0 20 20" fill="none" xmlns="http://www.w3.org/2000/svg">
<g clip-path="url(#clip0_233_379)">
<path opacity="0.51" d="M10.0003 18.3332C14.6027 18.3332 18.3337 14.6022 18.3337 9.99984C18.3337 5.39746 14.6027 1.6665 10.0003 1.6665C5.39795 1.6665 1.66699 5.39746 1.66699 9.99984C1.66699 14.6022 5.39795 18.3332 10.0003 18.3332Z" stroke="#9333EA" stroke-width="2" stroke-linecap="round" stroke-linejoin="round"/>
<path opacity="0.51" d="M10 15C12.7614 15 15 12.7614 15 10C15 7.23858 12.7614 5 10 5C7.23858 5 5 7.23858 5 10C5 12.7614 7.23858 15 10 15Z" stroke="#9333EA" stroke-width="2" stroke-linecap="round" stroke-linejoin="round"/>
<path opacity="0.51" d="M9.99967 11.6668C10.9201 11.6668 11.6663 10.9206 11.6663 10.0002C11.6663 9.07969 10.9201 8.3335 9.99967 8.3335C9.0792 8.3335 8.33301 9.07969 8.33301 10.0002C8.33301 10.9206 9.0792 11.6668 9.99967 11.6668Z" stroke="#9333EA" stroke-width="2" stroke-linecap="round" stroke-linejoin="round"/>
</g>
<defs>
<clipPath id="clip0_233_379">
<rect width="19.9999" height="20.0001" fill="white"/>
</clipPath>
</defs>
</svg>
